<svg width="500" height="500" viewBox="0 0 500 500" fill="none" xmlns="http://www.w3.org/2000/svg">
<path d="M255.744 0L489.25 465.24H11.1196L255.744 0Z" fill="#FFB800"/>
<path d="M254.337 0.0229324C277.093 1.31065 296.034 12.1212 307.459 34.0955L494.43 410.109C512.558 448.117 484.486 499.263 438.42 500H61.9031C19.9764 499.335 -14.424 451.908 6.11197 409.694L196.575 33.6905C200.141 26.9404 201.767 24.988 204.842 21.4468C217.205 7.16769 230.726 -0.475539 254.337 0.0229324ZM251.262 41.5311C244.1 41.8841 237.543 45.8823 233.968 52.0924C168.169 176.492 104.737 302.169 43.1914 428.719C37.4997 441.44 47.2673 457.765 61.5591 458.45C187.277 460.475 313.047 460.475 438.764 458.45C452.577 457.786 462.959 442.001 457.205 428.854C396.817 302.325 334.563 176.648 269.921 52.2274C266.106 45.4669 260.508 41.4064 251.262 41.5311Z" fill="black"/>
<path d="M266.888 338.505H231.987L228.151 167.685H270.891L266.888 338.505ZM226.984 390.74C226.984 384.416 229.037 379.182 233.155 375.018C237.283 370.864 242.902 368.777 250.021 368.777C257.152 368.777 262.77 370.864 266.888 375.018C271.006 379.182 273.07 384.416 273.07 390.74C273.07 396.836 271.058 401.935 267.055 406.037C263.041 410.139 257.371 412.195 250.021 412.195C242.672 412.195 237.001 410.139 232.988 406.037C228.985 401.935 226.984 396.836 226.984 390.74Z" fill="black"/>
</svg>
